<?xml version="1.0" encoding="UTF-8" standalone="no"?>
<!-- Uploaded to: SVG Repo, www.svgrepo.com, Generator: SVG Repo Mixer Tools -->

<svg
   fill="#000000"
   height="800px"
   width="800px"
   version="1.1"
   id="Capa_1"
   viewBox="0 0 480.647 480.647"
   xml:space="preserve"
   sodipodi:docname="FA-Smol.svg"
   inkscape:version="1.4 (86a8ad7, 2024-10-11)"
   xmlns:inkscape="http://www.inkscape.org/namespaces/inkscape"
   xmlns:sodipodi="http://sodipodi.sourceforge.net/DTD/sodipodi-0.dtd"
   xmlns="http://www.w3.org/2000/svg"
   xmlns:svg="http://www.w3.org/2000/svg"><defs
   id="defs4" /><sodipodi:namedview
   id="namedview4"
   pagecolor="#ffffff"
   bordercolor="#000000"
   borderopacity="0.25"
   inkscape:showpageshadow="2"
   inkscape:pageopacity="0.0"
   inkscape:pagecheckerboard="0"
   inkscape:deskcolor="#d1d1d1"
   showgrid="false"
   showguides="true"
   inkscape:zoom="0.82643105"
   inkscape:cx="233.5343"
   inkscape:cy="337.59622"
   inkscape:window-width="1909"
   inkscape:window-height="1160"
   inkscape:window-x="596"
   inkscape:window-y="33"
   inkscape:window-maximized="0"
   inkscape:current-layer="Capa_1"><sodipodi:guide
     position="215.91662,243.64761"
     orientation="0,-1"
     id="guide5"
     inkscape:locked="false" /><sodipodi:guide
     position="239.90736,350.51543"
     orientation="1,0"
     id="guide6"
     inkscape:locked="false" /><sodipodi:guide
     position="-289.34281,343.24551"
     orientation="0,-1"
     id="guide7"
     inkscape:locked="false" /></sodipodi:namedview>

<g
   style="fill:#000000"
   id="g8"
   transform="matrix(1.0831889,0,0,1.0430707,101.06636,120.8506)"><path
     d="M 200,48 H 136 V 16 a 8,8 0 0 0 -16,0 V 48 H 56 A 32.03635,32.03635 0 0 0 24,80 v 112 a 32.03635,32.03635 0 0 0 32,32 h 144 a 32.03635,32.03635 0 0 0 32,-32 V 80 A 32.03635,32.03635 0 0 0 200,48 Z M 72,108 a 12,12 0 1 1 12,12 12,12 0 0 1 -12,-12 z m 28,76 h -8 a 16,16 0 0 1 0,-32 h 8 z m 40,0 h -24 v -32 h 24 z m 24,0 h -8 v -32 h 8 a 16,16 0 0 1 0,32 z m 8,-64 a 12,12 0 1 1 12,-12 12,12 0 0 1 -12,12 z"
     id="path1-8" /></g></svg>
