<?xml version="1.0" encoding="UTF-8" standalone="no"?>
<!-- Uploaded to: SVG Repo, www.svgrepo.com, Generator: SVG Repo Mixer Tools -->

<svg
   fill="#000000"
   height="800px"
   width="800px"
   version="1.1"
   id="Capa_1"
   viewBox="0 0 480.647 480.647"
   xml:space="preserve"
   sodipodi:docname="H-AE.svg"
   inkscape:version="1.4 (86a8ad7, 2024-10-11)"
   xmlns:inkscape="http://www.inkscape.org/namespaces/inkscape"
   xmlns:sodipodi="http://sodipodi.sourceforge.net/DTD/sodipodi-0.dtd"
   xmlns:xlink="http://www.w3.org/1999/xlink"
   xmlns="http://www.w3.org/2000/svg"
   xmlns:svg="http://www.w3.org/2000/svg"><defs
   id="defs4"><linearGradient
     id="swatch2"
     inkscape:swatch="solid"><stop
       style="stop-color:#ffffff;stop-opacity:1;"
       offset="0"
       id="stop2" /></linearGradient><linearGradient
     id="swatch1"
     inkscape:swatch="solid"><stop
       style="stop-color:#ffffff;stop-opacity:1;"
       offset="0"
       id="stop1" /></linearGradient><linearGradient
     inkscape:collect="always"
     xlink:href="#swatch1"
     id="linearGradient1"
     x1="0"
     y1="240.323"
     x2="480.64732"
     y2="240.323"
     gradientUnits="userSpaceOnUse" /><linearGradient
     inkscape:collect="always"
     xlink:href="#swatch2"
     id="linearGradient2"
     x1="28"
     y1="116"
     x2="228"
     y2="116"
     gradientUnits="userSpaceOnUse" /></defs><sodipodi:namedview
   id="namedview4"
   pagecolor="#ffffff"
   bordercolor="#000000"
   borderopacity="0.25"
   inkscape:showpageshadow="2"
   inkscape:pageopacity="0.0"
   inkscape:pagecheckerboard="0"
   inkscape:deskcolor="#d1d1d1"
   showgrid="false"
   showguides="true"
   inkscape:zoom="0.82643105"
   inkscape:cx="233.5343"
   inkscape:cy="336.3862"
   inkscape:window-width="1909"
   inkscape:window-height="1160"
   inkscape:window-x="596"
   inkscape:window-y="0"
   inkscape:window-maximized="0"
   inkscape:current-layer="Capa_1"><sodipodi:guide
     position="215.91662,243.64761"
     orientation="0,-1"
     id="guide5"
     inkscape:locked="false" /><sodipodi:guide
     position="239.90736,350.51543"
     orientation="1,0"
     id="guide6"
     inkscape:locked="false" /><sodipodi:guide
     position="-289.34281,343.24551"
     orientation="0,-1"
     id="guide7"
     inkscape:locked="false" /></sodipodi:namedview>
<g
   id="g4"
   transform="matrix(-0.46874968,0,0,0.51633616,234.02718,128.48487)"
   style="stroke:url(#linearGradient1)">
	<path
   d="m 192.959,331.256 c 10.128,2.011 15.95,26.404 16.229,63.188 0.227,29.885 -3.148,59.018 -3.182,59.309 -0.141,1.205 0.239,2.413 1.046,3.32 0.806,0.907 1.962,1.425 3.175,1.425 h 134.539 c 0.007,0 0.013,0 0.02,0 2.347,0 4.25,-1.903 4.25,-4.25 0,-0.307 -0.033,-0.605 -0.094,-0.894 -3.649,-32.539 3.991,-54.353 11.062,-66.941 7.253,-12.912 15.407,-19.039 16.348,-19.72 25.628,-14.897 32.593,-44.263 34.114,-52.815 39.652,-19.645 56.595,-47.769 63.828,-68.064 7.59,-21.297 6.366,-38.288 6.151,-40.613 -0.06,-23.187 -10.115,-44.888 -27.692,-59.94 0.288,-2.617 0.433,-5.229 0.433,-7.793 0,-39.359 -32.021,-71.38 -71.38,-71.38 -6.199,0 -12.34,0.8 -18.304,2.38 C 349.762,43.182 322.84,27.03 293.926,27.03 c -13.725,0 -27.15,3.55 -39.02,10.293 -12.525,-9.807 -28.023,-15.175 -43.977,-15.175 -22.696,0 -43.866,10.719 -57.325,28.851 -8.544,-3.488 -17.574,-5.253 -26.892,-5.253 -28.733,0 -54.94,17.591 -65.927,44.006 C 44.054,94.016 28.92,103.703 17.978,117.201 6.385,131.503 0,149.538 0,167.982 c 0,27.024 13.252,51.845 35.581,66.916 -0.124,1.718 -0.187,3.424 -0.187,5.097 0,39.359 32.021,71.38 71.38,71.38 8.063,0 15.965,-1.341 23.535,-3.991 13.541,14.986 32.67,23.52 52.954,23.52 0.075,0 0.154,-0.002 0.23,-0.006 0.009,0 0.95,-0.049 2.547,-0.049 1.631,0 4.317,-0.11 6.919,0.407 z M 471.969,215.641 H 445.67 c -2.347,0 -4.25,1.903 -4.25,4.25 0,2.347 1.903,4.25 4.25,4.25 h 25.372 c -0.332,2.167 -0.29,4.635 -1.308,6.908 -0.002,0.004 -0.006,0.005 -0.008,0.01 -0.171,0.521 -9.65,14.786 -31.338,29.48 -6.818,4.62 -15.353,9.568 -25.691,14.129 -2.33,-5.216 -7.498,-15.703 -15.417,-26.036 16.807,-8.795 20.583,-25.912 20.083,-34.416 -0.138,-2.344 -2.154,-4.134 -4.492,-3.994 -2.343,0.138 -4.131,2.149 -3.994,4.492 0.012,0.198 0.88,19.013 -17.21,27.197 -10.823,-11.865 -25.491,-21.834 -43.877,-20.839 -2.344,0.126 -4.141,2.129 -4.014,4.473 0.127,2.344 2.124,4.138 4.473,4.014 31.316,-1.691 51.336,36.923 56.563,48.359 -18.991,7.325 -43.213,13.042 -73.156,13.672 -35.459,0.747 -61.404,4.952 -80.246,10.226 -19.09,-21.327 -8.777,-38.729 -8.29,-39.52 1.243,-1.978 0.656,-4.592 -1.317,-5.847 -1.981,-1.259 -4.607,-0.676 -5.867,1.305 -0.144,0.228 -13.362,21.707 6.634,46.779 -21.763,7.322 -31.915,15.804 -35.907,20.009 -8.492,-1.879 -16.372,-2.194 -20.624,-2.194 -1.513,0 -2.53,0.04 -2.878,0.056 -17.339,-0.028 -33.708,-7.149 -45.548,-19.662 6.825,-5.579 24.167,-17.724 42.621,-14.645 2.314,0.383 4.505,-1.178 4.891,-3.494 0.386,-2.315 -1.178,-4.505 -3.494,-4.891 -9.481,-1.581 -18.532,0.077 -26.39,2.986 -7.031,-6.312 -36.395,-30.531 -59.888,-17.715 -2.06,1.124 -2.82,3.706 -1.696,5.766 1.123,2.061 3.705,2.819 5.766,1.696 16.212,-8.84 38.143,6.653 47.225,14.106 -8.951,4.715 -15.309,10.25 -17.351,12.135 -7.209,2.771 -14.781,4.189 -22.524,4.189 -34.672,0 -62.88,-28.208 -62.88,-62.88 0,-1.602 0.088,-3.245 0.218,-4.897 14.598,-9.823 50.279,-29.148 64.548,-16.38 1.748,1.564 4.436,1.415 6.001,-0.333 1.565,-1.75 1.416,-4.436 -0.333,-6.002 -8.081,-7.23 -19.761,-7.429 -31.582,-4.602 -6.684,-4.016 -3.595,-20.158 -1.908,-25.709 0.685,-2.244 -0.578,-4.618 -2.822,-5.305 -2.244,-0.689 -4.621,0.576 -5.307,2.821 -0.754,2.464 -5.968,20.658 0.855,30.938 -14.679,5.201 -28.161,13.555 -33.551,17.101 C 21.054,214.682 9.497,193.852 8.567,170.977 h 44.336 c 2.347,0 4.25,-1.903 4.25,-4.25 0,-2.347 -1.903,-4.25 -4.25,-4.25 H 8.726 c 2.33,-29.92 23.446,-55.822 52.39,-63.999 4.63,13.686 21.436,59.025 44.204,69.913 0.591,0.283 1.216,0.417 1.831,0.417 1.585,0 3.107,-0.892 3.837,-2.418 1.013,-2.117 0.117,-4.655 -2.001,-5.667 C 88.03,150.7 71.352,102.415 68.435,93.528 c 9.553,-23.553 32.781,-39.282 58.277,-39.282 8.788,0 17.277,1.804 25.267,5.321 2.817,5.791 13.526,30.335 -1.655,40.722 -1.937,1.326 -2.433,3.971 -1.108,5.908 0.824,1.204 2.156,1.851 3.512,1.851 0.827,0 1.662,-0.241 2.396,-0.743 20.297,-13.887 8.918,-42.202 4.892,-50.665 11.836,-16.318 30.686,-25.991 50.914,-25.991 13.919,0 27.44,4.645 38.417,13.128 -1.371,3.545 -3.337,9.772 -3.93,17.424 -7.106,-0.473 -20.821,-0.432 -27.668,5.973 -3.012,2.818 -4.454,6.576 -4.167,10.867 0.15,2.246 2.018,3.967 4.236,3.967 0.095,0 0.191,-0.003 0.287,-0.009 2.342,-0.156 4.114,-2.182 3.958,-4.523 -0.117,-1.755 0.342,-3.017 1.49,-4.092 3.936,-3.688 14.39,-4.219 21.837,-3.668 0.403,5.5 1.673,11.407 4.361,17.382 0.708,1.574 2.257,2.507 3.878,2.507 0.583,0 1.176,-0.121 1.742,-0.375 2.141,-0.963 3.095,-3.479 2.131,-5.62 -7.614,-16.919 -1.483,-33.83 0.342,-38.148 10.898,-6.494 23.342,-9.93 36.082,-9.93 26.885,0 51.839,15.644 63.575,39.855 0.923,1.903 3.105,2.839 5.12,2.194 6.201,-1.985 12.656,-2.991 19.185,-2.991 34.672,0 62.88,28.208 62.88,62.88 0,2.148 -0.119,4.338 -0.35,6.536 -10.667,4.266 -40.952,17.742 -39.793,32.814 0.171,2.229 2.034,3.924 4.233,3.924 0.109,0 0.22,-0.004 0.331,-0.013 2.34,-0.18 4.091,-2.223 3.911,-4.564 -0.496,-6.452 17.055,-17.318 34.404,-24.241 10.378,8.96 17.797,20.513 21.598,33.337 h -50.475 c -2.347,0 -4.25,1.903 -4.25,4.25 0,2.347 1.903,4.25 4.25,4.25 h 52.438 c 0,-0.002 1.838,9.689 0.986,21.878 z m -264.37,118 c 10.769,3.016 22.284,9.211 24.485,21.535 4.532,25.377 4.444,79.409 4.319,94.822 H 214.95 c 0.952,-9.586 2.911,-32.329 2.739,-55.547 -0.217,-29.249 -3.508,-49.424 -10.09,-60.81 z m 132.468,116.357 h -9.74 v -57.027 c 0,-2.347 -1.903,-4.25 -4.25,-4.25 -2.347,0 -4.25,1.903 -4.25,4.25 v 57.027 h -21.879 v -42.923 c 0,-2.347 -1.903,-4.25 -4.25,-4.25 -2.347,0 -4.25,1.903 -4.25,4.25 v 42.923 h -46.541 c 0.126,-13.917 0.227,-57.652 -2.982,-85.894 h 21.467 c 2.347,0 4.25,-1.903 4.25,-4.25 0,-2.347 -1.903,-4.25 -4.25,-4.25 h -22.619 c -0.106,-0.651 -0.212,-1.301 -0.322,-1.922 -2.549,-14.274 -12.952,-22.076 -24.235,-26.329 7.513,-6.063 25.5,-16.797 63.228,-22.868 2.072,6.62 7.512,21.437 18.208,35.387 11.094,14.47 29.715,30.131 58.332,30.131 1.635,0 3.308,-0.058 5.009,-0.164 -10.553,12.695 -24.583,37.945 -20.926,80.159 z m 31.475,-90.031 c -26.007,9.732 -50.053,-3.105 -66.989,-25.064 -9.273,-12.022 -14.379,-25.078 -16.566,-31.666 12.573,-1.652 27.094,-2.795 43.85,-3.147 54.288,-1.143 90.728,-18.466 111.737,-32.796 7.777,-5.305 14.056,-10.571 18.981,-15.245 -10.942,23.479 -30.331,42.005 -57.779,55.149 -1.307,0.625 -2.205,1.879 -2.383,3.316 -0.043,0.337 -2.767,38.944 -30.851,49.453 z"
   id="path1"
   style="stroke:url(#linearGradient1)" />
	<path
   d="m 381.806,96.161 c 22.777,0 41.307,18.53 41.307,41.307 0,2.347 1.903,4.25 4.25,4.25 2.347,0 4.25,-1.903 4.25,-4.25 0,-27.464 -22.343,-49.807 -49.807,-49.807 -2.347,0 -4.25,1.903 -4.25,4.25 0,2.347 1.902,4.25 4.25,4.25 z"
   id="path2"
   style="stroke:url(#linearGradient1)" />
	<path
   d="m 297.026,173.148 c 0.445,0 0.899,-0.07 1.344,-0.219 22.969,-7.656 26.379,-22.264 26.33,-30.434 3.146,0.311 6.257,0.467 9.295,0.467 17.514,0 32.712,-4.593 39.55,-7.032 2.482,7.51 2.067,15.476 -1.261,23.795 -0.872,2.18 0.188,4.653 2.367,5.524 0.518,0.208 1.052,0.305 1.577,0.305 1.686,0 3.283,-1.011 3.947,-2.672 14.214,-35.534 -19.895,-56.037 -20.241,-56.24 -2.026,-1.188 -4.629,-0.508 -5.816,1.517 -1.187,2.025 -0.508,4.629 1.517,5.816 0.071,0.042 7.155,4.247 12.803,12.105 0.501,0.698 0.969,1.401 1.414,2.108 -10.159,3.465 -37.252,10.926 -61.599,2 -2.202,-0.809 -4.645,0.324 -5.453,2.527 -0.808,2.204 0.323,4.645 2.527,5.453 3.623,1.328 7.279,2.335 10.923,3.075 0.524,5.078 -0.603,16.966 -20.569,23.622 -2.227,0.742 -3.43,3.149 -2.688,5.375 0.595,1.782 2.253,2.908 4.033,2.908 z"
   id="path3"
   style="stroke:url(#linearGradient1)" />
	<path
   d="m 239.651,207.864 c 2.346,-0.071 4.19,-2.031 4.119,-4.377 -0.071,-2.346 -2.017,-4.202 -4.377,-4.119 -28.227,0.858 -50.417,-7.755 -57.427,-10.851 2.708,-13.839 15.664,-25.994 15.944,-26.253 1.729,-1.586 1.846,-4.274 0.26,-6.004 -1.586,-1.729 -4.275,-1.848 -6.005,-0.261 -1.16,1.063 -28.263,26.316 -16.12,50.603 0.745,1.49 2.246,2.351 3.805,2.351 0.639,0 1.287,-0.145 1.897,-0.45 2.1,-1.049 2.951,-3.603 1.901,-5.702 -0.833,-1.667 -1.395,-3.36 -1.743,-5.061 9.435,3.81 28.898,10.189 53.464,10.189 1.412,0 2.839,-0.021 4.282,-0.065 z"
   id="path4"
   style="stroke:url(#linearGradient1)" />
</g>
<g
   style="fill:#000000;stroke:url(#linearGradient2)"
   id="g5"
   transform="matrix(1.1265164,0,0,1.0831889,215.84575,127.00002)"><path
     d="M 200,52 H 132 V 16 a 4,4 0 0 0 -8,0 V 52 H 56 A 28.03146,28.03146 0 0 0 28,80 v 112 a 28.03146,28.03146 0 0 0 28,28 h 144 a 28.03146,28.03146 0 0 0 28,-28 V 80 A 28.03146,28.03146 0 0 0 200,52 Z m 20,140 a 20.0226,20.0226 0 0 1 -20,20 H 56 A 20.0226,20.0226 0 0 1 36,192 V 80 A 20.0226,20.0226 0 0 1 56,60 h 144 a 20.0226,20.0226 0 0 1 20,20 z M 164,140 H 92 a 24,24 0 0 0 0,48 h 72 a 24,24 0 0 0 0,-48 z m -20,8 v 32 h -32 v -32 z m -68,16 a 16.01833,16.01833 0 0 1 16,-16 h 12 v 32 H 92 A 16.01833,16.01833 0 0 1 76,164 Z m 88,16 h -12 v -32 h 12 a 16,16 0 0 1 0,32 z M 76,108 a 8,8 0 1 1 8,8 8.00009,8.00009 0 0 1 -8,-8 z m 88,0 a 8,8 0 1 1 8,8 8.00009,8.00009 0 0 1 -8,-8 z"
     id="path1-0"
     style="stroke:url(#linearGradient2)" /></g></svg>
